<?xml version="1.0" standalone="no"?>
<svg version="1.0" xmlns="http://www.w3.org/2000/svg"
     width="181.000000pt" height="223.000000pt" viewBox="0 0 181.000000 223.000000"
     preserveAspectRatio="xMidYMid meet">

    <g transform="translate(0.000000,223.000000) scale(0.100000,-0.100000)"
       fill="#eee" stroke="none">
        <path d="M1606 1969 c-100 -15 -207 -48 -301 -94 -98 -48 -235 -151 -286 -216
l-32 -41 -38 42 c-30 33 -44 41 -66 38 -40 -4 -60 -51 -89 -215 -43 -237 -92
-346 -175 -388 -93 -49 -256 32 -468 231 -58 55 -105 92 -112 89 -22 -14 194
-212 312 -288 77 -49 173 -80 227 -74 117 13 185 120 232 363 53 282 65 301
125 214 l27 -39 -32 -46 c-47 -69 -108 -204 -131 -292 -31 -119 -36 -312 -11
-433 41 -199 120 -347 262 -490 146 -148 301 -233 503 -274 96 -20 257 -22
257 -3 0 7 -4 17 -9 23 -16 16 -119 347 -135 433 -21 108 -21 304 0 412 17 93
69 260 114 370 39 92 38 124 -1 40 -116 -251 -170 -548 -140 -762 16 -111 79
-335 136 -481 6 -16 0 -18 -53 -18 l-60 0 -32 83 c-43 114 -78 236 -97 342
-20 117 -12 332 17 460 29 131 109 360 190 546 39 89 69 170 68 178 -3 17
-115 -237 -176 -401 -45 -119 -94 -289 -113 -388 -7 -36 -13 -130 -13 -210 -1
-172 13 -251 83 -459 l49 -143 -57 6 c-35 4 -61 13 -69 23 -18 25 -97 274
-118 373 -28 130 -25 345 5 480 46 208 136 439 312 798 54 112 99 207 99 213
0 11 -122 10 -204 -2z m174 -22 c0 -2 -41 -88 -90 -191 -178 -368 -269 -604
-311 -806 -30 -145 -30 -335 0 -478 18 -85 76 -281 106 -354 7 -16 4 -16 -42
-1 -26 8 -53 21 -60 27 -14 13 -74 207 -102 327 -95 408 -11 749 335 1371 30
53 62 99 72 101 21 6 92 8 92 4z m-141 -31 c-9 -20 -21 -24 -71 -30 -91 -9
-154 -8 -142 4 11 11 158 48 196 49 25 1 27 -1 17 -23z m-52 -93 c-24 -49 -47
-59 -152 -66 -62 -4 -189 9 -212 22 -9 5 10 21 57 47 l70 41 129 0 129 -1 -21
-43z m-159 -80 c61 2 112 3 112 0 0 -2 -11 -26 -25 -52 -23 -46 -28 -50 -75
-60 -107 -23 -274 -4 -339 38 -18 12 -4 31 51 71 l37 27 63 -14 c44 -11 97
-14 176 -10z m-273 -114 c64 -24 212 -32 288 -16 l37 8 -32 -66 c-37 -74 -46
-79 -186 -95 -111 -12 -224 11 -274 57 -22 20 -22 25 0 51 9 11 30 37 46 57
19 24 34 35 45 31 9 -3 43 -15 76 -27z m-76 -176 c56 -17 178 -16 259 1 34 7
62 12 62 10 0 -2 -12 -33 -27 -68 -31 -76 -36 -78 -172 -78 -88 1 -169 17
-267 53 l-54 20 22 42 c11 23 27 52 35 64 l15 22 41 -26 c23 -15 62 -32 86
-40z m127 -148 l132 0 -18 -45 c-17 -42 -21 -46 -70 -57 -137 -30 -274 -20
-359 28 -30 18 -51 25 -49 17 2 -7 30 -26 62 -42 48 -25 75 -31 145 -34 48 -2
120 1 160 7 41 6 76 9 78 7 3 -3 -1 -27 -8 -55 l-12 -50 -71 -18 c-103 -26
-232 -24 -322 5 l-71 24 13 76 c6 42 22 106 34 142 l21 66 102 -35 c96 -33
110 -35 233 -36z m-326 -256 c80 -27 205 -29 304 -5 38 9 71 14 73 12 3 -2 -1
-26 -9 -52 l-13 -48 -75 -25 c-97 -31 -209 -34 -297 -6 l-63 19 0 63 c0 35 3
63 8 63 4 0 36 -10 72 -21z m353 -161 c-3 -29 -6 -58 -8 -65 -5 -17 -108 -52
-183 -63 -61 -8 -197 1 -211 15 -5 5 -31 148 -28 152 1 1 29 -8 62 -19 85 -28
189 -27 285 5 41 14 78 25 81 26 3 1 4 -23 2 -51z m-5 -150 l-3 -53 -68 -28
c-80 -33 -143 -42 -222 -32 -52 6 -58 9 -70 39 -8 18 -16 43 -20 57 l-6 24
128 0 c107 0 137 4 183 22 81 31 82 31 78 -29z m8 -114 c3 -25 3 -49 -2 -54
-26 -25 -121 -61 -187 -72 -42 -6 -74 -14 -72 -18 9 -15 142 11 203 40 36 17
66 29 67 28 2 -2 8 -28 14 -58 11 -52 11 -55 -11 -73 -32 -25 -81 -46 -134
-56 -43 -8 -44 -8 -87 38 -40 43 -137 188 -137 206 0 4 26 5 58 1 70 -8 148 6
216 38 28 13 54 25 58 25 4 1 10 -20 14 -45z m52 -251 c13 -42 1 -63 -50 -89
-45 -24 -81 -18 -117 20 l-33 34 39 6 c21 4 61 20 88 35 28 16 53 29 56 30 3
1 11 -16 17 -36z m44 -143 c14 -44 23 -80 20 -80 -4 0 -42 21 -84 47 l-78 47
37 18 c21 10 45 25 53 33 8 8 17 15 20 15 3 0 18 -36 32 -80z"/>
        <path d="M1790 995 c-19 -104 -17 -364 4 -455 l15 -65 -4 70 c-2 39 -7 94 -11
124 -5 40 -4 52 4 47 7 -4 12 -1 12 8 0 8 -4 18 -10 21 -5 3 -10 31 -10 61 0
34 4 53 10 49 13 -8 13 18 0 31 -7 7 -7 29 1 68 5 31 9 71 7 89 -2 23 -7 10
-18 -48z"/>
    </g>
</svg>
