<?xml version="1.0" standalone="no"?>
<svg version="1.0" xmlns="http://www.w3.org/2000/svg"
     width="329.000000pt" height="284.000000pt" viewBox="0 0 329.000000 284.000000"
     preserveAspectRatio="xMidYMid meet">

    <g transform="translate(0.000000,284.000000) scale(0.100000,-0.100000)"
       fill="#eee" stroke="none">
        <path d="M55 2819 c4 -12 81 -191 171 -398 l164 -376 -28 -22 c-15 -13 -32
-23 -38 -23 -6 0 -62 111 -124 248 -173 378 -198 429 -199 405 -1 -11 66 -168
148 -347 l149 -326 -41 -28 c-23 -16 -47 -32 -53 -35 -7 -4 -45 70 -105 204
-53 119 -95 203 -97 191 -2 -10 35 -106 82 -212 48 -106 86 -196 86 -200 0 -8
-83 -60 -95 -60 -3 0 -21 33 -39 73 -40 85 -49 59 -10 -29 24 -55 25 -59 8
-71 -10 -7 -21 -13 -26 -13 -4 0 -8 -18 -8 -40 0 -38 6 -47 92 -133 178 -177
406 -300 658 -354 119 -25 382 -25 500 1 96 21 232 67 302 102 26 13 51 24 57
24 5 0 12 -17 16 -37 16 -84 57 -128 106 -111 38 13 72 56 204 258 118 180
218 291 296 328 161 78 321 -48 490 -385 31 -62 71 -151 89 -198 31 -78 50
-100 64 -76 7 10 -58 168 -116 285 -224 449 -440 548 -674 309 -39 -40 -117
-145 -189 -253 -68 -102 -137 -198 -154 -214 -45 -43 -51 -34 -87 105 -3 10
23 34 79 72 208 141 395 391 477 635 52 157 65 241 64 422 -1 202 -17 293 -53
298 -21 3 -23 1 -17 -21 l6 -25 -76 24 c-66 21 -95 24 -204 23 l-127 -1 -13
-56 c-19 -87 -68 -218 -117 -317 -152 -302 -407 -579 -893 -970 -92 -74 -172
-135 -178 -135 -17 0 -122 42 -122 50 0 3 48 49 108 101 458 401 735 690 889
926 89 136 208 403 180 403 -7 0 -21 -25 -31 -56 -28 -89 -129 -281 -202 -384
-163 -231 -422 -497 -852 -873 l-123 -108 -62 35 c-34 19 -62 39 -62 44 0 5
29 36 65 67 150 134 472 442 566 542 221 237 358 420 446 598 50 100 63 135
51 135 -4 0 -34 -51 -65 -113 -164 -324 -425 -615 -1069 -1195 l-26 -23 -64
51 c-35 28 -65 54 -66 58 -1 4 38 37 87 74 154 117 400 331 537 467 216 214
354 392 448 580 48 96 50 101 35 101 -5 0 -30 -41 -55 -90 -51 -103 -140 -238
-217 -331 -80 -98 -300 -319 -430 -435 -135 -119 -414 -344 -428 -344 -9 0
-120 121 -120 131 0 4 33 26 73 49 378 224 660 471 836 733 65 97 156 280 141
285 -6 2 -12 2 -13 1 -1 -2 -14 -28 -28 -58 l-26 -55 -23 57 c-13 31 -29 57
-36 57 -9 0 -3 -22 17 -67 l31 -68 -28 -53 c-15 -29 -31 -49 -35 -45 -4 4 -29
55 -54 113 -47 105 -60 128 -70 118 -3 -2 21 -63 54 -135 l58 -130 -33 -46
c-19 -26 -36 -47 -39 -47 -4 0 -43 80 -136 278 -21 45 -43 82 -49 82 -5 0 -10
-2 -10 -5 0 -2 30 -66 66 -142 36 -76 77 -162 90 -190 l24 -53 -45 -50 -44
-50 -14 27 c-8 16 -58 126 -112 246 -85 188 -115 242 -115 209 0 -4 50 -117
110 -250 61 -134 110 -246 110 -250 0 -4 -20 -28 -45 -52 l-44 -43 -31 69
c-156 348 -244 534 -252 534 -15 0 -11 -10 132 -325 l132 -290 -42 -39 -42
-39 -129 284 c-188 411 -187 409 -200 409 -6 0 -9 -6 -6 -12 3 -7 74 -161 157
-343 83 -181 154 -335 156 -341 5 -11 -93 -91 -100 -83 -4 5 -312 716 -325
752 -12 32 -36 38 -26 6z m2085 -26 c30 -11 60 -21 65 -21 10 -1 14 -21 29
-140 l7 -53 -63 34 c-104 58 -160 72 -280 72 -60 0 -108 2 -108 4 0 29 36 121
49 125 9 3 68 3 131 2 83 -3 130 -9 170 -23z m-80 -153 c36 -11 87 -33 113
-50 26 -16 53 -30 59 -30 8 0 9 -25 5 -81 -4 -45 -9 -84 -11 -86 -2 -3 -35 14
-73 36 -93 57 -206 91 -324 98 l-97 6 23 61 23 61 53 6 c74 8 152 1 229 -21z
m-150 -144 c99 -18 174 -47 252 -99 49 -32 63 -47 61 -62 -7 -38 -36 -160 -40
-167 -2 -5 -32 14 -65 42 -119 95 -212 131 -385 145 -46 4 -83 9 -83 11 0 3
16 36 35 74 l35 70 58 0 c31 -1 91 -7 132 -14z m-95 -172 c107 -14 227 -74
317 -157 l38 -35 -14 -40 c-13 -36 -43 -101 -52 -111 -2 -2 -30 21 -63 51
-103 96 -209 144 -383 174 -51 9 -94 17 -96 19 -2 1 13 28 33 60 l37 57 71 -7
c40 -3 90 -8 112 -11z m-169 -139 c182 -32 285 -79 395 -182 27 -25 49 -42 49
-38 0 5 2 6 5 3 17 -17 -198 -318 -226 -318 -4 0 -40 30 -79 66 -122 112 -292
209 -403 229 -20 4 -39 10 -41 14 -2 3 15 28 39 55 l43 50 123 -32 c203 -52
325 -126 400 -241 9 -15 18 -20 22 -14 4 6 -11 35 -32 64 -65 90 -161 148
-331 199 -56 16 -110 30 -119 30 -44 1 -44 17 0 73 24 31 49 56 55 56 6 1 51
-6 100 -14z m-211 -278 c124 -41 228 -106 343 -211 l71 -65 -37 -33 c-20 -18
-54 -46 -75 -62 -42 -32 -41 -32 -71 24 -27 49 -116 122 -193 157 -64 30 -161
58 -272 79 -23 5 -20 10 45 75 77 78 71 77 189 36z m-195 -142 c209 -40 340
-112 411 -224 l29 -44 -33 -20 c-17 -12 -61 -35 -97 -53 l-65 -32 -56 57 c-91
93 -221 162 -363 191 l-59 12 69 64 c38 35 74 63 79 64 6 0 44 -7 85 -15z
m-90 -172 c99 -32 193 -89 259 -156 l53 -55 -54 -20 c-107 -40 -114 -39 -204
21 -86 57 -210 111 -299 129 l-53 10 62 54 c60 52 62 53 111 48 28 -3 84 -17
125 -31z m-146 -134 c92 -33 253 -127 239 -139 -10 -9 -149 -30 -199 -30 -20
0 -57 13 -90 31 -30 17 -94 44 -142 59 -48 16 -86 32 -86 36 1 4 24 24 50 46
46 36 52 39 97 33 27 -3 86 -19 131 -36z m-212 -95 c85 -27 163 -62 156 -70
-11 -11 -290 37 -308 53 -6 6 42 42 57 43 7 0 49 -12 95 -26z"/>
    </g>
</svg>
