<svg width="27" height="18" viewBox="0 0 27 18" fill="none" xmlns="http://www.w3.org/2000/svg">
    <path d="M1 0C0.447715 0 0 0.447715 0 1C0 1.55228 0.447715 2 1 2V0ZM26 2C26.5523 2 27 1.55228 27 1C27 0.447715 26.5523 0 26 0V2ZM1 2H26V0H1V2Z"
          fill="black"/>
    <path d="M7 8C6.44772 8 6 8.44772 6 9C6 9.55228 6.44772 10 7 10V8ZM26 10C26.5523 10 27 9.55228 27 9C27 8.44772 26.5523 8 26 8V10ZM7 10L26 10V8L7 8V10Z"
          fill="black"/>
    <path d="M13 16C12.4477 16 12 16.4477 12 17C12 17.5523 12.4477 18 13 18V16ZM26 18C26.5523 18 27 17.5523 27 17C27 16.4477 26.5523 16 26 16V18ZM13 18L26 18V16L13 16V18Z"
          fill="black"/>
</svg>
